# Blender 4.1.0
# www.blender.org
mtllib head.mtl
o Sphere
v 0.256488 2.046329 -0.095215
v 0.252866 2.043002 -0.176229
v 0.129916 2.043050 -0.299179
v 0.048902 2.043115 -0.332736
v 0.000000 2.043156 -0.344181
v 0.256488 2.013000 -0.088597
v 0.252866 1.978615 -0.163444
v 0.199484 1.951951 -0.227717
v 0.129916 1.931528 -0.277035
v 0.048902 1.918733 -0.308038
v 0.000000 1.914370 -0.318612
v 0.267933 2.046380 -0.008276
v 0.256488 1.984753 -0.069751
v 0.252866 1.924044 -0.127037
v 0.199485 1.874771 -0.176229
v 0.155519 1.727905 -0.150694
v 0.085234 1.738873 -0.204871
v -0.002074 1.742704 -0.223793
v 0.256488 1.965893 -0.041546
v 0.252866 1.887606 -0.072549
v 0.199485 1.823237 -0.099172
v 0.194860 1.711972 -0.071992
v 0.117396 1.533538 -0.253692
v 0.000000 1.667405 -0.112508
v 0.256488 1.959275 -0.008276
v 0.252866 1.874822 -0.008276
v 0.199485 1.805156 -0.008276
v 0.195466 1.694231 0.015645
v 0.187681 1.526591 -0.198855
v 0.000000 1.665764 0.024217
v 0.256488 1.965908 0.024994
v 0.252866 1.887637 0.055996
v 0.199485 1.793333 0.082619
v 0.157215 1.678194 0.094861
v 0.087685 1.667038 0.149966
v 0.000647 1.662974 0.170045
v 0.256488 1.984794 0.053199
v 0.251203 1.858052 0.126109
v 0.202811 1.734049 0.205236
v 0.127855 1.667997 0.264116
v 0.049209 1.645003 0.287151
v 0.000000 1.637175 0.295008
v 0.256488 2.013058 0.072045
v 0.252866 1.978730 0.146892
v 0.199485 1.952116 0.211164
v 0.129916 1.824112 0.297727
v 0.048902 1.811348 0.328729
v 0.000000 1.806997 0.339304
v 0.256488 2.046395 0.078662
v 0.252866 2.043127 0.159676
v 0.199485 2.043184 0.229244
v 0.129916 2.043254 0.282626
v 0.048902 2.055804 0.336874
v 0.000000 2.055852 0.348320
v 0.256488 2.079729 0.072045
v 0.252866 2.107515 0.146892
v 0.199485 2.134233 0.211164
v 0.129916 2.163061 0.268759
v 0.048902 2.175989 0.299762
v 0.000000 2.180416 0.310336
v 0.256488 2.107986 0.053199
v 0.252866 2.162094 0.110484
v 0.199485 2.211409 0.159676
v 0.129916 2.257568 0.205699
v 0.048902 2.281387 0.229428
v 0.000000 2.289527 0.237521
v 0.256488 2.126866 0.024994
v 0.252866 2.198559 0.055996
v 0.199485 2.262970 0.082619
v 0.129916 2.312406 0.103047
v 0.048902 2.343502 0.115889
v 0.000000 2.354122 0.120269
v 0.256488 2.133483 -0.008276
v 0.222931 2.214660 -0.008276
v 0.209463 2.296058 -0.008276
v 0.136569 2.344552 -0.008276
v 0.057218 2.376532 -0.008276
v 0.000000 2.379691 -0.008276
v 0.256488 2.126832 -0.041546
v 0.252866 2.198501 -0.072549
v 0.199485 2.262897 -0.099172
v 0.129916 2.312325 -0.119600
v 0.048902 2.343418 -0.132442
v 0.000000 2.354039 -0.136822
v 0.256488 2.107934 -0.069751
v 0.252866 2.162003 -0.127037
v 0.199485 2.211290 -0.176229
v 0.129916 2.249131 -0.213975
v 0.048902 2.272946 -0.237704
v 0.000000 2.281087 -0.245797
v 0.256488 2.079665 -0.088597
v 0.252866 2.107400 -0.163444
v 0.199485 2.134079 -0.227717
v 0.129916 2.154577 -0.277035
v 0.048902 2.167497 -0.308038
v 0.000000 2.171926 -0.318612
v 0.199484 2.043010 -0.245797
v 0.155519 1.727905 -0.150694
v 0.085234 1.738873 -0.204871
v -0.002074 1.742704 -0.223793
v 0.194860 1.711972 -0.071992
v 0.000000 1.667405 -0.112508
v 0.195466 1.694231 0.015645
v 0.000000 1.665764 0.024217
v 0.157215 1.678194 0.094861
v 0.050074 1.673020 0.152851
v 0.000000 1.668955 0.172931
v 0.000000 1.535965 -0.272846
v 0.227022 1.516498 -0.119194
v 0.080782 1.480497 -0.154754
v 0.000000 1.469068 -0.156317
v 0.227627 1.505259 -0.030488
v 0.080612 1.497112 -0.023576
v 0.000000 1.477501 -0.019842
v 0.189377 1.495101 0.049694
v 0.082236 1.494015 0.108357
v 0.000000 1.491440 0.128681
v -0.256488 2.046329 -0.095215
v -0.252866 2.043002 -0.176229
v -0.129916 2.043050 -0.299179
v -0.048902 2.043115 -0.332736
v -0.256488 2.013000 -0.088597
v -0.252866 1.978615 -0.163444
v -0.199484 1.951951 -0.227717
v -0.129916 1.931528 -0.277035
v -0.048902 1.918733 -0.308038
v -0.267933 2.046380 -0.008276
v -0.256488 1.984753 -0.069751
v -0.252866 1.924044 -0.127037
v -0.199485 1.874771 -0.176229
v -0.155519 1.727905 -0.150694
v -0.085234 1.738873 -0.204871
v 0.002074 1.742704 -0.223793
v -0.256488 1.965893 -0.041546
v -0.252866 1.887606 -0.072549
v -0.199485 1.823237 -0.099172
v -0.194860 1.711972 -0.071992
v -0.117396 1.533538 -0.253692
v -0.256488 1.959275 -0.008276
v -0.252866 1.874822 -0.008276
v -0.199485 1.805156 -0.008276
v -0.195466 1.694231 0.015645
v -0.187681 1.526591 -0.198855
v -0.256488 1.965908 0.024994
v -0.252866 1.887637 0.055996
v -0.199485 1.793333 0.082619
v -0.157215 1.678194 0.094861
v -0.087685 1.667038 0.149966
v -0.000647 1.662974 0.170045
v -0.256488 1.984794 0.053199
v -0.251203 1.858052 0.126109
v -0.202811 1.734049 0.205236
v -0.127855 1.667997 0.264116
v -0.049209 1.645003 0.287151
v -0.256488 2.013058 0.072045
v -0.252866 1.978730 0.146892
v -0.199485 1.952116 0.211164
v -0.129916 1.824112 0.297727
v -0.048902 1.811348 0.328729
v -0.256488 2.046395 0.078662
v -0.252866 2.043127 0.159676
v -0.199485 2.043184 0.229244
v -0.129916 2.043254 0.282626
v -0.048902 2.055804 0.336874
v -0.256488 2.079729 0.072045
v -0.252866 2.107515 0.146892
v -0.199485 2.134233 0.211164
v -0.129916 2.163061 0.268759
v -0.048902 2.175989 0.299762
v -0.256488 2.107986 0.053199
v -0.252866 2.162094 0.110484
v -0.199485 2.211409 0.159676
v -0.129916 2.257568 0.205699
v -0.048902 2.281387 0.229428
v -0.256488 2.126866 0.024994
v -0.252866 2.198559 0.055996
v -0.199485 2.262970 0.082619
v -0.129916 2.312406 0.103047
v -0.048902 2.343502 0.115889
v -0.256488 2.133483 -0.008276
v -0.222931 2.214660 -0.008276
v -0.209463 2.296058 -0.008276
v -0.136569 2.344552 -0.008276
v -0.057218 2.376532 -0.008276
v -0.256488 2.126832 -0.041546
v -0.252866 2.198501 -0.072549
v -0.199485 2.262897 -0.099172
v -0.129916 2.312325 -0.119600
v -0.048902 2.343418 -0.132442
v -0.256488 2.107934 -0.069751
v -0.252866 2.162003 -0.127037
v -0.199485 2.211290 -0.176229
v -0.129916 2.249131 -0.213975
v -0.048902 2.272946 -0.237704
v -0.256488 2.079665 -0.088597
v -0.252866 2.107400 -0.163444
v -0.199485 2.134079 -0.227717
v -0.129916 2.154577 -0.277035
v -0.048902 2.167497 -0.308038
v -0.199484 2.043010 -0.245797
v -0.155519 1.727905 -0.150694
v -0.085234 1.738873 -0.204871
v 0.002074 1.742704 -0.223793
v -0.194860 1.711972 -0.071992
v -0.195466 1.694231 0.015645
v -0.157215 1.678194 0.094861
v -0.050074 1.673020 0.152851
v -0.227022 1.516498 -0.119194
v -0.080782 1.480497 -0.154754
v -0.227627 1.505259 -0.030488
v -0.080612 1.497112 -0.023576
v -0.189377 1.495101 0.049694
v -0.082236 1.494015 0.108357
vn 0.3763 -0.1804 -0.9088
vn 0.9990 -0.0088 -0.0443
vn 0.2236 -0.1898 -0.9560
vn 0.7876 -0.1200 -0.6044
vn 0.6013 -0.1556 -0.7837
vn 0.9911 -0.0259 -0.1305
vn 0.7877 -0.3419 -0.5124
vn 0.6631 -0.3564 -0.6583
vn 0.9911 -0.0738 -0.1106
vn 0.4527 -0.4029 -0.7954
vn 0.9990 -0.0247 -0.0370
vn 0.1888 -0.4679 -0.8634
vn -0.0000 1.0000 -0.0000
vn 0.9990 -0.0365 -0.0244
vn -0.2448 -0.3458 -0.9058
vn 0.7879 -0.5119 -0.3423
vn 0.9115 -0.2398 -0.3341
vn 0.9911 -0.1104 -0.0738
vn 0.9991 -0.0416 -0.0117
vn 0.9911 -0.1302 -0.0259
vn -0.1738 -0.8993 -0.4014
vn 0.9990 -0.0428 -0.0085
vn 0.7880 -0.6038 -0.1201
vn 0.9941 0.1086 -0.0023
vn 0.8383 -0.5452 0.0035
vn 0.9674 -0.1677 0.1901
vn 0.9911 -0.1302 0.0260
vn 0.9990 -0.0428 0.0085
vn 0.1940 -0.9792 -0.0600
vn 0.9992 -0.0369 0.0129
vn 0.0506 -0.9838 -0.1720
vn 0.8305 -0.5030 -0.2391
vn 0.8274 -0.5585 -0.0592
vn 0.9911 -0.1104 0.0739
vn 0.7509 -0.0669 0.6570
vn 0.9911 -0.0738 0.1106
vn 0.3558 -0.2141 0.9097
vn 0.9991 -0.0211 0.0373
vn 0.2081 -0.2419 0.9477
vn 0.8339 -0.0393 0.5505
vn 0.2209 -0.0339 0.9747
vn 0.7876 -0.1200 0.6044
vn 0.7122 -0.0067 0.7019
vn 0.9911 -0.0259 0.1305
vn 0.4656 0.0133 0.8849
vn 0.9990 -0.0088 0.0443
vn 0.4801 0.1823 0.8581
vn 0.9989 0.0089 0.0450
vn 0.2229 0.2860 0.9320
vn 0.7877 0.1200 0.6043
vn 0.6340 0.1159 0.7646
vn 0.9911 0.0259 0.1305
vn 0.6765 0.4087 0.6126
vn 0.9911 0.0738 0.1106
vn 0.3769 0.5141 0.7705
vn 0.9989 0.0258 0.0387
vn 0.2242 0.5409 0.8106
vn 0.7879 0.3418 0.5123
vn 0.2237 0.8544 0.4691
vn 0.7881 0.5116 0.3423
vn 0.6407 0.6607 0.3912
vn 0.9911 0.1104 0.0739
vn 0.3758 0.8151 0.4409
vn 0.9989 0.0391 0.0262
vn 0.9911 0.1302 0.0259
vn 0.3711 0.8886 0.2695
vn 0.9357 0.2729 -0.2236
vn 0.1346 0.9643 0.2280
vn 0.9099 0.4145 0.0144
vn 0.5697 0.7673 0.2944
vn 0.5696 0.7672 -0.2949
vn 0.9911 0.1302 -0.0260
vn 0.3711 0.8885 -0.2701
vn 0.9357 0.2729 0.2234
vn 0.1346 0.9642 -0.2286
vn 0.9099 0.4145 -0.0147
vn 0.9989 0.0391 -0.0262
vn 0.2245 0.8098 -0.5421
vn 0.7880 0.5115 -0.3426
vn 0.6019 0.6635 -0.4443
vn 0.9911 0.1104 -0.0740
vn 0.3771 0.7696 -0.5153
vn 0.9911 0.0738 -0.1107
vn 0.3768 0.5140 -0.7706
vn 0.9989 0.0258 -0.0388
vn 0.2242 0.5408 -0.8107
vn 0.7878 0.3417 -0.5125
vn 0.6017 0.4432 -0.6645
vn 0.7876 0.1200 -0.6044
vn 0.6014 0.1556 -0.7837
vn 0.9911 0.0259 -0.1305
vn 0.3765 0.1804 -0.9087
vn 0.9989 0.0089 -0.0450
vn 0.2239 0.1898 -0.9559
vn 0.1846 0.2416 -0.9527
vn -1.0000 -0.0000 -0.0000
vn 0.6110 0.2738 -0.7428
vn 0.2952 -0.2056 0.9330
vn -1.0000 -0.0063 0.0052
vn 0.8975 0.0475 0.4385
vn 0.2580 -0.9097 -0.3255
vn 0.0892 -0.8766 -0.4728
vn 0.1465 -0.9889 0.0239
vn 0.1893 -0.9776 0.0916
vn 0.1403 -0.9894 0.0374
vn 0.0211 -0.9981 -0.0587
vn 0.8846 0.2396 -0.4001
vn 0.4770 -0.1305 0.8692
vn 0.9869 0.1604 0.0196
vn -0.3763 -0.1804 -0.9088
vn -0.9990 -0.0088 -0.0443
vn -0.2236 -0.1898 -0.9560
vn -0.7876 -0.1200 -0.6044
vn -0.6013 -0.1556 -0.7837
vn -0.9911 -0.0259 -0.1305
vn -0.7877 -0.3419 -0.5124
vn -0.6631 -0.3564 -0.6583
vn -0.9911 -0.0738 -0.1106
vn -0.4527 -0.4029 -0.7954
vn -0.9990 -0.0247 -0.0370
vn -0.1888 -0.4679 -0.8634
vn -0.9990 -0.0365 -0.0244
vn 0.2448 -0.3458 -0.9058
vn -0.7879 -0.5119 -0.3423
vn -0.9115 -0.2398 -0.3341
vn -0.9911 -0.1104 -0.0738
vn -0.9991 -0.0416 -0.0117
vn -0.9911 -0.1302 -0.0259
vn 0.1738 -0.8993 -0.4014
vn -0.9990 -0.0428 -0.0085
vn -0.7880 -0.6038 -0.1201
vn -0.9941 0.1086 -0.0023
vn -0.8383 -0.5452 0.0035
vn -0.9674 -0.1677 0.1901
vn -0.9911 -0.1302 0.0260
vn -0.9990 -0.0428 0.0085
vn -0.1940 -0.9792 -0.0600
vn -0.9992 -0.0369 0.0129
vn -0.0506 -0.9838 -0.1720
vn -0.8305 -0.5030 -0.2391
vn -0.8274 -0.5585 -0.0592
vn -0.9911 -0.1104 0.0739
vn -0.7509 -0.0669 0.6570
vn -0.9911 -0.0738 0.1106
vn -0.3558 -0.2141 0.9097
vn -0.9991 -0.0211 0.0373
vn -0.2081 -0.2419 0.9477
vn -0.8339 -0.0393 0.5505
vn -0.2209 -0.0339 0.9747
vn -0.7876 -0.1200 0.6044
vn -0.7122 -0.0067 0.7019
vn -0.9911 -0.0259 0.1305
vn -0.4656 0.0133 0.8849
vn -0.9990 -0.0088 0.0443
vn -0.4801 0.1823 0.8581
vn -0.9989 0.0089 0.0450
vn -0.2229 0.2860 0.9320
vn -0.7877 0.1200 0.6043
vn -0.6340 0.1159 0.7646
vn -0.9911 0.0259 0.1305
vn -0.6765 0.4087 0.6126
vn -0.9911 0.0738 0.1106
vn -0.3769 0.5141 0.7705
vn -0.9989 0.0258 0.0387
vn -0.2242 0.5409 0.8106
vn -0.7879 0.3418 0.5123
vn -0.2237 0.8544 0.4691
vn -0.7881 0.5116 0.3423
vn -0.6407 0.6607 0.3912
vn -0.9911 0.1104 0.0739
vn -0.3758 0.8151 0.4409
vn -0.9989 0.0391 0.0262
vn -0.9911 0.1302 0.0259
vn -0.3711 0.8886 0.2695
vn -0.9357 0.2729 -0.2236
vn -0.1346 0.9643 0.2280
vn -0.9099 0.4145 0.0144
vn -0.5697 0.7673 0.2944
vn -0.5696 0.7672 -0.2949
vn -0.9911 0.1302 -0.0260
vn -0.3711 0.8885 -0.2701
vn -0.9357 0.2729 0.2234
vn -0.1346 0.9642 -0.2286
vn -0.9099 0.4145 -0.0147
vn -0.9989 0.0391 -0.0262
vn -0.2245 0.8098 -0.5421
vn -0.7880 0.5115 -0.3426
vn -0.6019 0.6635 -0.4443
vn -0.9911 0.1104 -0.0740
vn -0.3771 0.7696 -0.5153
vn -0.9911 0.0738 -0.1107
vn -0.3768 0.5140 -0.7706
vn -0.9989 0.0258 -0.0388
vn -0.2242 0.5408 -0.8107
vn -0.7878 0.3417 -0.5125
vn -0.6017 0.4432 -0.6645
vn -0.7876 0.1200 -0.6044
vn -0.6014 0.1556 -0.7837
vn -0.9911 0.0259 -0.1305
vn -0.3765 0.1804 -0.9087
vn -0.9989 0.0089 -0.0450
vn -0.2239 0.1898 -0.9559
vn -0.1846 0.2416 -0.9527
vn -0.6110 0.2738 -0.7428
vn -0.2952 -0.2056 0.9330
vn 1.0000 -0.0063 0.0052
vn -0.8975 0.0475 0.4385
vn -0.2580 -0.9097 -0.3255
vn -0.0892 -0.8766 -0.4728
vn -0.1465 -0.9889 0.0239
vn -0.1893 -0.9776 0.0916
vn -0.1403 -0.9894 0.0374
vn -0.0211 -0.9981 -0.0587
vn -0.8846 0.2396 -0.4001
vn -0.4770 -0.1305 0.8692
vn -0.9869 0.1604 0.0196
vt 0.750000 0.583333
vt 0.750000 0.666667
vt 0.687500 0.666667
vt 0.687500 0.583333
vt 0.750000 0.833333
vt 0.750000 0.916667
vt 0.687500 0.916667
vt 0.687500 0.833333
vt 0.750000 0.500000
vt 0.687500 0.500000
vt 0.750000 0.750000
vt 0.687500 0.750000
vt 0.718750 1.000000
vt 0.625000 0.833333
vt 0.625000 0.750000
vt 0.625000 0.666667
vt 0.656250 1.000000
vt 0.625000 0.916667
vt 0.625000 0.583333
vt 0.625000 0.500000
vt 0.562500 0.916667
vt 0.562500 0.833333
vt 0.437500 0.583333
vt 0.437500 0.500000
vt 0.562500 0.750000
vt 0.562500 0.666667
vt 0.593750 1.000000
vt 0.500000 0.750000
vt 0.500000 0.666667
vt 0.531250 1.000000
vt 0.500000 0.916667
vt 0.437500 0.666667
vt 0.500000 0.833333
vt 0.000000 0.000000
vt 0.437500 0.833333
vt 0.437500 0.750000
vt 0.468750 1.000000
vt 0.437500 0.916667
vt 0.375000 0.666667
vt 0.375000 0.583333
vt 0.375000 0.916667
vt 0.375000 0.833333
vt 0.375000 0.500000
vt 0.375000 0.750000
vt 0.406250 1.000000
vt 0.312500 0.750000
vt 0.312500 0.666667
vt 0.343750 1.000000
vt 0.312500 0.916667
vt 0.312500 0.583333
vt 0.312500 0.833333
vt 0.312500 0.500000
vt 0.250000 0.583333
vt 0.250000 0.500000
vt 0.250000 0.833333
vt 0.250000 0.750000
vt 0.250000 0.666667
vt 0.281250 1.000000
vt 0.250000 0.916667
vt 0.187500 0.666667
vt 0.187500 0.583333
vt 0.187500 0.916667
vt 0.187500 0.833333
vt 0.187500 0.500000
vt 0.187500 0.750000
vt 0.218750 1.000000
vt 0.125000 0.750000
vt 0.125000 0.666667
vt 0.156250 1.000000
vt 0.125000 0.916667
vt 0.125000 0.583333
vt 0.125000 0.833333
vt 0.125000 0.500000
vt 0.062500 0.583333
vt 0.062500 0.500000
vt 0.062500 0.833333
vt 0.062500 0.750000
vt 0.062500 0.666667
vt 0.093750 1.000000
vt 0.062500 0.916667
vt 0.031250 1.000000
vt 0.000000 0.916667
vt 0.000000 0.666667
vt 0.000000 0.583333
vt 0.000000 0.833333
vt 0.000000 0.500000
vt 0.000000 0.750000
vt 1.000000 0.666667
vt 1.000000 0.750000
vt 0.937500 0.750000
vt 0.937500 0.666667
vt 1.000000 0.916667
vt 0.968750 1.000000
vt 0.937500 0.916667
vt 1.000000 0.583333
vt 0.937500 0.583333
vt 1.000000 0.833333
vt 0.937500 0.833333
vt 1.000000 0.500000
vt 0.937500 0.500000
vt 0.875000 0.916667
vt 0.875000 0.833333
vt 0.875000 0.583333
vt 0.875000 0.500000
vt 0.875000 0.750000
vt 0.875000 0.666667
vt 0.906250 1.000000
vt 0.843750 1.000000
vt 0.812500 0.916667
vt 0.812500 0.666667
vt 0.812500 0.583333
vt 0.812500 0.833333
vt 0.812500 0.500000
vt 0.812500 0.750000
vt 0.781250 1.000000
vt 0.562500 0.583333
vt 0.562500 0.500000
vt 0.500000 0.583333
vt 0.500000 0.500000
s 0
f 4/1/1 3/2/1 9/3/1 10/4/1
f 2/5/2 1/6/2 6/7/2 7/8/2
f 5/9/3 4/1/3 10/4/3 11/10/3
f 97/11/4 2/5/4 7/8/4 8/12/4
f 3/2/5 97/11/5 8/12/5 9/3/5
f 1/6/6 12/13/6 6/7/6
f 8/12/7 7/8/7 14/14/7 15/15/7
f 9/3/8 8/12/8 15/15/8 16/16/8
f 6/7/9 12/17/9 13/18/9
f 10/4/10 9/3/10 16/16/10 17/19/10
f 7/8/11 6/7/11 13/18/11 14/14/11
f 11/10/12 10/4/12 17/19/12 18/20/12
f 17/19/13 16/16/13 98/16/13 99/19/13
f 14/14/14 13/18/14 19/21/14 20/22/14
f 35/23/15 36/24/15 107/24/15 106/23/15
f 15/15/16 14/14/16 20/22/16 21/25/16
f 16/16/17 15/15/17 21/25/17 22/26/17
f 13/18/18 12/27/18 19/21/18
f 22/26/19 21/25/19 27/28/19 28/29/19
f 19/21/20 12/30/20 25/31/20
f 34/32/21 35/23/21 106/23/21 105/32/21
f 20/22/22 19/21/22 25/31/22 26/33/22
f 28/29/13 34/32/13 105/32/13 103/29/13
f 21/25/23 20/22/23 26/33/23 27/28/23
f 36/34/24 30/34/24 104/34/24 107/34/24
f 27/28/25 26/33/25 32/35/25 33/36/25
f 28/29/26 27/28/26 33/36/26 34/32/26
f 25/31/27 12/37/27 31/38/27
f 18/20/13 17/19/13 99/19/13 100/20/13
f 26/33/28 25/31/28 31/38/28 32/35/28
f 35/23/29 34/32/29 40/39/29 41/40/29
f 32/35/30 31/38/30 37/41/30 38/42/30
f 36/24/31 35/23/31 41/40/31 42/43/31
f 33/36/32 32/35/32 38/42/32 39/44/32
f 34/32/33 33/36/33 39/44/33 40/39/33
f 31/38/34 12/45/34 37/41/34
f 40/39/35 39/44/35 45/46/35 46/47/35
f 37/41/36 12/48/36 43/49/36
f 41/40/37 40/39/37 46/47/37 47/50/37
f 38/42/38 37/41/38 43/49/38 44/51/38
f 42/43/39 41/40/39 47/50/39 48/52/39
f 39/44/40 38/42/40 44/51/40 45/46/40
f 48/52/41 47/50/41 53/53/41 54/54/41
f 45/46/42 44/51/42 50/55/42 51/56/42
f 46/47/43 45/46/43 51/56/43 52/57/43
f 43/49/44 12/58/44 49/59/44
f 47/50/45 46/47/45 52/57/45 53/53/45
f 44/51/46 43/49/46 49/59/46 50/55/46
f 53/53/47 52/57/47 58/60/47 59/61/47
f 50/55/48 49/59/48 55/62/48 56/63/48
f 54/54/49 53/53/49 59/61/49 60/64/49
f 51/56/50 50/55/50 56/63/50 57/65/50
f 52/57/51 51/56/51 57/65/51 58/60/51
f 49/59/52 12/66/52 55/62/52
f 58/60/53 57/65/53 63/67/53 64/68/53
f 55/62/54 12/69/54 61/70/54
f 59/61/55 58/60/55 64/68/55 65/71/55
f 56/63/56 55/62/56 61/70/56 62/72/56
f 60/64/57 59/61/57 65/71/57 66/73/57
f 57/65/58 56/63/58 62/72/58 63/67/58
f 66/73/59 65/71/59 71/74/59 72/75/59
f 63/67/60 62/72/60 68/76/60 69/77/60
f 64/68/61 63/67/61 69/77/61 70/78/61
f 61/70/62 12/79/62 67/80/62
f 65/71/63 64/68/63 70/78/63 71/74/63
f 62/72/64 61/70/64 67/80/64 68/76/64
f 67/80/65 12/81/65 73/82/65
f 71/74/66 70/78/66 76/83/66 77/84/66
f 68/76/67 67/80/67 73/82/67 74/85/67
f 72/75/68 71/74/68 77/84/68 78/86/68
f 69/77/69 68/76/69 74/85/69 75/87/69
f 70/78/70 69/77/70 75/87/70 76/83/70
f 76/88/71 75/89/71 81/90/71 82/91/71
f 73/92/72 12/93/72 79/94/72
f 77/95/73 76/88/73 82/91/73 83/96/73
f 74/97/74 73/92/74 79/94/74 80/98/74
f 78/99/75 77/95/75 83/96/75 84/100/75
f 75/89/76 74/97/76 80/98/76 81/90/76
f 80/98/77 79/94/77 85/101/77 86/102/77
f 84/100/78 83/96/78 89/103/78 90/104/78
f 81/90/79 80/98/79 86/102/79 87/105/79
f 82/91/80 81/90/80 87/105/80 88/106/80
f 79/94/81 12/107/81 85/101/81
f 83/96/82 82/91/82 88/106/82 89/103/82
f 85/101/83 12/108/83 91/109/83
f 89/103/84 88/106/84 94/110/84 95/111/84
f 86/102/85 85/101/85 91/109/85 92/112/85
f 90/104/86 89/103/86 95/111/86 96/113/86
f 87/105/87 86/102/87 92/112/87 93/114/87
f 88/106/88 87/105/88 93/114/88 94/110/88
f 93/114/89 92/112/89 2/5/89 97/11/89
f 94/110/90 93/114/90 97/11/90 3/2/90
f 91/109/91 12/115/91 1/6/91
f 95/111/92 94/110/92 3/2/92 4/1/92
f 92/112/93 91/109/93 1/6/93 2/5/93
f 96/113/94 95/111/94 4/1/94 5/9/94
f 100/20/95 99/19/95 23/19/95 108/20/95
f 107/34/96 104/34/96 114/34/96 117/34/96
f 99/19/97 98/16/97 29/16/97 23/19/97
f 106/23/98 107/24/98 117/24/98 116/23/98
f 102/34/99 100/34/99 108/34/99 111/34/99
f 103/29/100 105/32/100 115/32/100 112/29/100
f 24/34/13 18/34/13 100/34/13 102/34/13
f 22/26/13 28/29/13 103/29/13 101/26/13
f 16/16/13 22/26/13 101/26/13 98/16/13
f 23/19/101 29/16/101 109/26/101 110/116/101
f 108/20/102 23/19/102 110/116/102 111/117/102
f 110/116/103 109/26/103 112/29/103 113/118/103
f 111/117/104 110/116/104 113/118/104 114/119/104
f 114/119/105 113/118/105 116/23/105 117/24/105
f 113/118/106 112/29/106 115/32/106 116/23/106
f 98/16/107 101/26/107 109/26/107 29/16/107
f 105/32/108 106/23/108 116/23/108 115/32/108
f 101/26/109 103/29/109 112/29/109 109/26/109
f 121/1/110 126/4/110 125/3/110 120/2/110
f 119/5/111 123/8/111 122/7/111 118/6/111
f 5/9/112 11/10/112 126/4/112 121/1/112
f 200/11/113 124/12/113 123/8/113 119/5/113
f 120/2/114 125/3/114 124/12/114 200/11/114
f 118/6/115 122/7/115 127/13/115
f 124/12/116 130/15/116 129/14/116 123/8/116
f 125/3/117 131/16/117 130/15/117 124/12/117
f 122/7/118 128/18/118 127/17/118
f 126/4/119 132/19/119 131/16/119 125/3/119
f 123/8/120 129/14/120 128/18/120 122/7/120
f 11/10/121 133/20/121 132/19/121 126/4/121
f 132/19/13 202/19/13 201/16/13 131/16/13
f 129/14/122 135/22/122 134/21/122 128/18/122
f 148/23/123 207/23/123 107/24/123 149/24/123
f 130/15/124 136/25/124 135/22/124 129/14/124
f 131/16/125 137/26/125 136/25/125 130/15/125
f 128/18/126 134/21/126 127/27/126
f 137/26/127 142/29/127 141/28/127 136/25/127
f 134/21/128 139/31/128 127/30/128
f 147/32/129 206/32/129 207/23/129 148/23/129
f 135/22/130 140/33/130 139/31/130 134/21/130
f 142/29/13 205/29/13 206/32/13 147/32/13
f 136/25/131 141/28/131 140/33/131 135/22/131
f 149/34/132 107/34/132 104/34/132 30/34/132
f 141/28/133 146/36/133 145/35/133 140/33/133
f 142/29/134 147/32/134 146/36/134 141/28/134
f 139/31/135 144/38/135 127/37/135
f 133/20/13 203/20/13 202/19/13 132/19/13
f 140/33/136 145/35/136 144/38/136 139/31/136
f 148/23/137 154/40/137 153/39/137 147/32/137
f 145/35/138 151/42/138 150/41/138 144/38/138
f 149/24/139 42/43/139 154/40/139 148/23/139
f 146/36/140 152/44/140 151/42/140 145/35/140
f 147/32/141 153/39/141 152/44/141 146/36/141
f 144/38/142 150/41/142 127/45/142
f 153/39/143 158/47/143 157/46/143 152/44/143
f 150/41/144 155/49/144 127/48/144
f 154/40/145 159/50/145 158/47/145 153/39/145
f 151/42/146 156/51/146 155/49/146 150/41/146
f 42/43/147 48/52/147 159/50/147 154/40/147
f 152/44/148 157/46/148 156/51/148 151/42/148
f 48/52/149 54/54/149 164/53/149 159/50/149
f 157/46/150 162/56/150 161/55/150 156/51/150
f 158/47/151 163/57/151 162/56/151 157/46/151
f 155/49/152 160/59/152 127/58/152
f 159/50/153 164/53/153 163/57/153 158/47/153
f 156/51/154 161/55/154 160/59/154 155/49/154
f 164/53/155 169/61/155 168/60/155 163/57/155
f 161/55/156 166/63/156 165/62/156 160/59/156
f 54/54/157 60/64/157 169/61/157 164/53/157
f 162/56/158 167/65/158 166/63/158 161/55/158
f 163/57/159 168/60/159 167/65/159 162/56/159
f 160/59/160 165/62/160 127/66/160
f 168/60/161 173/68/161 172/67/161 167/65/161
f 165/62/162 170/70/162 127/69/162
f 169/61/163 174/71/163 173/68/163 168/60/163
f 166/63/164 171/72/164 170/70/164 165/62/164
f 60/64/165 66/73/165 174/71/165 169/61/165
f 167/65/166 172/67/166 171/72/166 166/63/166
f 66/73/167 72/75/167 179/74/167 174/71/167
f 172/67/168 177/77/168 176/76/168 171/72/168
f 173/68/169 178/78/169 177/77/169 172/67/169
f 170/70/170 175/80/170 127/79/170
f 174/71/171 179/74/171 178/78/171 173/68/171
f 171/72/172 176/76/172 175/80/172 170/70/172
f 175/80/173 180/82/173 127/81/173
f 179/74/174 184/84/174 183/83/174 178/78/174
f 176/76/175 181/85/175 180/82/175 175/80/175
f 72/75/176 78/86/176 184/84/176 179/74/176
f 177/77/177 182/87/177 181/85/177 176/76/177
f 178/78/178 183/83/178 182/87/178 177/77/178
f 183/88/179 188/91/179 187/90/179 182/89/179
f 180/92/180 185/94/180 127/93/180
f 184/95/181 189/96/181 188/91/181 183/88/181
f 181/97/182 186/98/182 185/94/182 180/92/182
f 78/99/183 84/100/183 189/96/183 184/95/183
f 182/89/184 187/90/184 186/98/184 181/97/184
f 186/98/185 191/102/185 190/101/185 185/94/185
f 84/100/186 90/104/186 194/103/186 189/96/186
f 187/90/187 192/105/187 191/102/187 186/98/187
f 188/91/188 193/106/188 192/105/188 187/90/188
f 185/94/189 190/101/189 127/107/189
f 189/96/190 194/103/190 193/106/190 188/91/190
f 190/101/191 195/109/191 127/108/191
f 194/103/192 199/111/192 198/110/192 193/106/192
f 191/102/193 196/112/193 195/109/193 190/101/193
f 90/104/194 96/113/194 199/111/194 194/103/194
f 192/105/195 197/114/195 196/112/195 191/102/195
f 193/106/196 198/110/196 197/114/196 192/105/196
f 197/114/197 200/11/197 119/5/197 196/112/197
f 198/110/198 120/2/198 200/11/198 197/114/198
f 195/109/199 118/6/199 127/115/199
f 199/111/200 121/1/200 120/2/200 198/110/200
f 196/112/201 119/5/201 118/6/201 195/109/201
f 96/113/202 5/9/202 121/1/202 199/111/202
f 203/20/203 108/20/203 138/19/203 202/19/203
f 202/19/204 138/19/204 143/16/204 201/16/204
f 207/23/205 213/23/205 117/24/205 107/24/205
f 102/34/206 111/34/206 108/34/206 203/34/206
f 205/29/207 210/29/207 212/32/207 206/32/207
f 24/34/13 102/34/13 203/34/13 133/34/13
f 137/26/13 204/26/13 205/29/13 142/29/13
f 131/16/13 201/16/13 204/26/13 137/26/13
f 138/19/208 209/116/208 208/26/208 143/16/208
f 108/20/209 111/117/209 209/116/209 138/19/209
f 209/116/210 211/118/210 210/29/210 208/26/210
f 111/117/211 114/119/211 211/118/211 209/116/211
f 114/119/212 117/24/212 213/23/212 211/118/212
f 211/118/213 213/23/213 212/32/213 210/29/213
f 201/16/214 143/16/214 208/26/214 204/26/214
f 206/32/215 212/32/215 213/23/215 207/23/215
f 204/26/216 208/26/216 210/29/216 205/29/216
