# Blender 3.6.4
# www.blender.org
mtllib rock.mtl
o Icosphere
v 0.000000 -0.087002 0.000000
v 0.723607 0.189272 0.525725
v -0.276388 0.196310 0.850649
v -0.894426 0.175535 0.000000
v -0.276388 0.225358 -0.850649
v 0.723607 0.166836 -0.525725
v 0.276388 0.836354 0.850649
v -0.723607 0.732361 0.525725
v -0.723607 0.818124 -0.525725
v 0.276388 0.757572 -0.850649
v 0.894426 0.793311 0.000000
v 0.000000 1.138941 0.000000
v -0.162456 -0.045909 0.499995
v 0.425323 -0.017562 0.309011
v 0.262869 0.101546 0.809012
v 0.850648 0.128856 0.000000
v 0.425323 -0.025994 -0.309011
v -0.525730 -0.011873 0.000000
v -0.688189 0.108923 0.499997
v -0.162456 -0.054709 -0.499995
v -0.688189 0.119466 -0.499997
v 0.262869 0.179374 -0.809012
v 0.951058 0.437800 0.309013
v 0.951058 0.489723 -0.309013
v 0.000000 0.486841 1.000000
v 0.587786 0.513181 0.809017
v -0.951058 0.466490 0.309013
v -0.587786 0.461396 0.809017
v -0.587786 0.426363 -0.809017
v -0.951058 0.470557 -0.309013
v 0.587786 0.419380 -0.809017
v 0.000000 0.432421 -1.000000
v 0.688189 0.792621 0.499997
v -0.262869 0.877424 0.809012
v -0.850648 0.795064 0.000000
v -0.262869 0.861579 -0.809012
v 0.688189 0.839506 -0.499997
v 0.162456 1.047118 0.499995
v 0.525730 1.131956 0.000000
v -0.425323 1.084449 0.309011
v -0.425323 1.089213 -0.309011
v 0.162456 1.135870 -0.499995
vn 0.0830 -0.9906 0.1084
vn 0.4504 -0.8681 0.2086
vn -0.1414 -0.9893 0.0354
vn -0.1414 -0.9898 -0.0180
vn 0.0775 -0.9930 -0.0893
vn 0.8140 -0.5212 0.2566
vn -0.0100 -0.4496 0.8932
vn -0.8386 -0.4648 0.2840
vn -0.4518 -0.5553 -0.6983
vn 0.4197 -0.5682 -0.7078
vn 0.7795 -0.1940 0.5956
vn -0.2950 -0.1997 0.9344
vn -0.9818 -0.1898 -0.0012
vn -0.2953 -0.2675 -0.9172
vn 0.8065 -0.1931 -0.5588
vn 0.4046 0.8359 0.3709
vn -0.5132 0.7212 0.4653
vn -0.6206 0.7755 -0.1159
vn 0.0776 0.6902 -0.7194
vn 0.6619 0.7206 -0.2064
vn 0.0133 0.9999 -0.0018
vn 0.4635 0.8222 -0.3303
vn 0.3872 0.6868 -0.6152
vn -0.0905 0.9953 -0.0355
vn -0.2184 0.8594 -0.4622
vn -0.3712 0.7937 -0.4819
vn -0.1216 0.9925 0.0077
vn -0.5657 0.8246 0.0064
vn -0.6605 0.7100 0.2443
vn 0.0042 0.9838 0.1793
vn -0.0725 0.9130 0.4016
vn 0.0263 0.8605 0.5087
vn 0.0131 0.9842 0.1765
vn 0.3944 0.8148 0.4248
vn 0.6514 0.7092 0.2697
vn 0.8340 0.4623 -0.3013
vn 0.7656 0.2523 -0.5918
vn 0.5428 0.4096 -0.7332
vn 0.0089 0.4111 -0.9115
vn -0.3031 0.2263 -0.9257
vn -0.5101 0.3808 -0.7712
vn -0.8717 0.4514 -0.1908
vn -0.9558 0.2939 0.0019
vn -0.8281 0.4970 0.2594
vn -0.5667 0.4426 0.6950
vn -0.3093 0.2416 0.9198
vn -0.0382 0.4181 0.9076
vn 0.5945 0.4908 0.6370
vn 0.7924 0.3016 0.5302
vn 0.8335 0.4321 0.3444
vn 0.3080 0.1683 -0.9364
vn 0.2786 -0.3772 -0.8832
vn 0.0113 -0.5949 -0.8037
vn -0.7933 0.1514 -0.5897
vn -0.7859 -0.2918 -0.5452
vn -0.8350 -0.4663 -0.2921
vn -0.7906 0.2064 0.5765
vn -0.7798 -0.2721 0.5638
vn -0.5063 -0.4825 0.7148
vn 0.2980 0.1660 0.9400
vn 0.3095 -0.2443 0.9190
vn 0.5320 -0.4200 0.7352
vn 0.9855 0.1693 0.0142
vn 0.9576 -0.2871 -0.0241
vn 0.8622 -0.4459 -0.2406
vn 0.2440 -0.8666 -0.4352
vn 0.1809 -0.8877 -0.4234
vn -0.0190 -0.7842 -0.6202
vn -0.2630 -0.7937 -0.5485
vn -0.3111 -0.9391 -0.1456
vn -0.4514 -0.8881 -0.0866
vn -0.4521 -0.8894 0.0680
vn -0.2798 -0.9500 0.1386
vn -0.2453 -0.8331 0.4957
vn 0.4443 -0.8794 -0.1709
vn 0.3338 -0.9426 0.0129
vn 0.1516 -0.9884 0.0135
vn -0.1047 -0.8338 0.5420
vn 0.1339 -0.9533 0.2706
vn 0.3667 -0.8711 0.3267
vt 0.181819 0.000000
vt 0.227273 0.078731
vt 0.136365 0.078731
vt 0.272728 0.157461
vt 0.318182 0.078731
vt 0.363637 0.157461
vt 0.909091 0.000000
vt 0.954545 0.078731
vt 0.863636 0.078731
vt 0.727273 0.000000
vt 0.772727 0.078731
vt 0.681818 0.078731
vt 0.545455 0.000000
vt 0.590909 0.078731
vt 0.500000 0.078731
vt 0.318182 0.236191
vt 0.090910 0.157461
vt 0.181819 0.157461
vt 0.136365 0.236191
vt 0.818182 0.157461
vt 0.909091 0.157461
vt 0.863636 0.236191
vt 0.636364 0.157461
vt 0.727273 0.157461
vt 0.681818 0.236191
vt 0.454546 0.157461
vt 0.545455 0.157461
vt 0.500000 0.236191
vt 0.227273 0.236191
vt 0.045455 0.236191
vt 0.772727 0.236191
vt 0.590909 0.236191
vt 0.409092 0.236191
vt 0.181819 0.314921
vt 0.272728 0.314921
vt 0.227273 0.393651
vt 0.000000 0.314921
vt 0.090910 0.314921
vt 0.045455 0.393651
vt 0.727273 0.314921
vt 0.818182 0.314921
vt 0.772727 0.393651
vt 0.545455 0.314921
vt 0.636364 0.314921
vt 0.590909 0.393651
vt 0.363637 0.314921
vt 0.454546 0.314921
vt 0.409092 0.393651
vt 0.500000 0.393651
vt 0.454546 0.472382
vt 0.681818 0.393651
vt 0.636364 0.472382
vt 0.863636 0.393651
vt 0.818182 0.472382
vt 0.909091 0.314921
vt 0.136365 0.393651
vt 0.090910 0.472382
vt 0.318182 0.393651
vt 0.272728 0.472382
vt 0.954545 0.236191
vt 1.000000 0.157461
vt 0.409092 0.078731
vt 0.363637 0.000000
s 0
f 1/1/1 14/2/1 13/3/1
f 2/4/2 14/5/2 16/6/2
f 1/7/3 13/8/3 18/9/3
f 1/10/4 18/11/4 20/12/4
f 1/13/5 20/14/5 17/15/5
f 2/4/6 16/6/6 23/16/6
f 3/17/7 15/18/7 25/19/7
f 4/20/8 19/21/8 27/22/8
f 5/23/9 21/24/9 29/25/9
f 6/26/10 22/27/10 31/28/10
f 2/4/11 23/16/11 26/29/11
f 3/17/12 25/19/12 28/30/12
f 4/20/13 27/22/13 30/31/13
f 5/23/14 29/25/14 32/32/14
f 6/26/15 31/28/15 24/33/15
f 7/34/16 33/35/16 38/36/16
f 8/37/17 34/38/17 40/39/17
f 9/40/18 35/41/18 41/42/18
f 10/43/19 36/44/19 42/45/19
f 11/46/20 37/47/20 39/48/20
f 39/48/21 42/49/21 12/50/21
f 39/48/22 37/47/22 42/49/22
f 37/47/23 10/43/23 42/49/23
f 42/45/24 41/51/24 12/52/24
f 42/45/25 36/44/25 41/51/25
f 36/44/26 9/40/26 41/51/26
f 41/42/27 40/53/27 12/54/27
f 41/42/28 35/41/28 40/53/28
f 35/41/29 8/55/29 40/53/29
f 40/39/30 38/56/30 12/57/30
f 40/39/31 34/38/31 38/56/31
f 34/38/32 7/34/32 38/56/32
f 38/36/33 39/58/33 12/59/33
f 38/36/34 33/35/34 39/58/34
f 33/35/35 11/46/35 39/58/35
f 24/33/36 37/47/36 11/46/36
f 24/33/37 31/28/37 37/47/37
f 31/28/38 10/43/38 37/47/38
f 32/32/39 36/44/39 10/43/39
f 32/32/40 29/25/40 36/44/40
f 29/25/41 9/40/41 36/44/41
f 30/31/42 35/41/42 9/40/42
f 30/31/43 27/22/43 35/41/43
f 27/22/44 8/55/44 35/41/44
f 28/30/45 34/38/45 8/37/45
f 28/30/46 25/19/46 34/38/46
f 25/19/47 7/34/47 34/38/47
f 26/29/48 33/35/48 7/34/48
f 26/29/49 23/16/49 33/35/49
f 23/16/50 11/46/50 33/35/50
f 31/28/51 32/32/51 10/43/51
f 31/28/52 22/27/52 32/32/52
f 22/27/53 5/23/53 32/32/53
f 29/25/54 30/31/54 9/40/54
f 29/25/55 21/24/55 30/31/55
f 21/24/56 4/20/56 30/31/56
f 27/22/57 28/60/57 8/55/57
f 27/22/58 19/21/58 28/60/58
f 19/21/59 3/61/59 28/60/59
f 25/19/60 26/29/60 7/34/60
f 25/19/61 15/18/61 26/29/61
f 15/18/62 2/4/62 26/29/62
f 23/16/63 24/33/63 11/46/63
f 23/16/64 16/6/64 24/33/64
f 16/6/65 6/26/65 24/33/65
f 17/15/66 22/27/66 6/26/66
f 17/15/67 20/14/67 22/27/67
f 20/14/68 5/23/68 22/27/68
f 20/12/69 21/24/69 5/23/69
f 20/12/70 18/11/70 21/24/70
f 18/11/71 4/20/71 21/24/71
f 18/9/72 19/21/72 4/20/72
f 18/9/73 13/8/73 19/21/73
f 13/8/74 3/61/74 19/21/74
f 16/6/75 17/62/75 6/26/75
f 16/6/76 14/5/76 17/62/76
f 14/5/77 1/63/77 17/62/77
f 13/3/78 15/18/78 3/17/78
f 13/3/79 14/2/79 15/18/79
f 14/2/80 2/4/80 15/18/80
