<svg version="1.1" xmlns="http://www.w3.org/2000/svg" xmlns:xlink="http://www.w3.org/1999/xlink" width="1560" height="804"><defs/><g><path fill="none" stroke="#02063B" paint-order="fill stroke markers" d=" M 20 418.125057630071 L 21 418.9295165153568 L 22 419.7337129929507 L 23 420.5376345977985 L 24 421.3412688691065 L 25 422.1446033505347 L 26 422.94762559038975 L 27 423.7503231418182 L 28 424.55268356299916 L 29 425.35469441733727 L 30 426.1563432736555 L 31 426.9576177063878 L 32 427.75850529577156 L 33 428.55899362804047 L 34 429.35907029561656 L 35 430.1587228973027 L 36 430.95793903847476 L 37 431.7567063312738 L 38 432.555012394798 L 39 433.35284485529456 L 40 434.1501913463517 L 41 434.94703950908996 L 42 435.7433769923541 L 43 436.5391914529044 L 44 437.33447055560794 L 45 438.12920197362996 L 46 438.92337338862467 L 47 439.71697249092654 L 48 440.50998697974063 L 49 441.30240456333377 L 50 442.09421295922465 L 51 442.8853998943745 L 52 443.67595310537706 L 53 444.4658603386489 L 54 445.2551093506193 L 55 446.04368790791983 L 56 446.83158378757423 L 57 447.6187847771877 L 58 448.40527867513634 L 59 449.191053290756 L 60 449.97609644453144 L 61 450.76039596828537 L 62 451.54393970536637 L 63 452.32671551083797 L 64 453.10871125166665 L 65 453.8899148069098 L 66 454.67031406790375 L 67 455.44989693845133 L 68 456.22865133500954 L 69 457.0065651868767 L 70 457.7836264363795 L 71 458.5598230390601 L 72 459.3351429638626 L 73 460.1095741933197 L 74 460.88310472373877 L 75 461.65572256538815 L 76 462.42741574268285 L 77 463.19817229437 L 78 463.9679802737148 L 79 464.7368277486849 L 80 465.5047028021361 L 81 466.2715935319967 L 82 467.0374880514519 L 83 467.80237448912817 L 84 468.56624098927745 L 85 469.32907571196057 L 86 470.0908668332309 L 87 470.8516025453178 L 88 471.61127105680924 L 89 472.3698605928351 L 90 473.12735939524913 L 91 473.8837557228116 L 92 474.6390378513712 L 93 475.3931940740465 L 94 476.14621270140793 L 95 476.8980820616584 L 96 477.6487905008146 L 97 478.3983263828875 L 98 479.1466780900626 L 99 479.89383402288036 L 100 480.6397826004155 L 101 481.38451226045703 L 102 482.1280114596869 L 103 482.87026867385936 L 104 483.6112723979795 L 105 484.35101114648154 L 106 485.0894734534066 L 107 485.82664787258085 L 108 486.5625229777928 L 109 487.29708736297016 L 110 488.03032964235683 L 111 488.76223845068955 L 112 489.4928024433737 L 113 490.2220102966594 L 114 490.9498507078169 L 115 491.6763123953118 L 116 492.40138409898003 L 117 493.1250545802022 L 118 493.8473126220779 L 119 494.5681470295995 L 120 495.28754662982584 L 121 496.0055002720552 L 122 496.7219968279983 L 123 497.4370251919505 L 124 498.1505742809645 L 125 498.8626330350215 L 126 499.5731904172029 L 127 500.2822354138616 L 128 500.9897570347923 L 129 501.6957443134022 L 130 502.40018630688064 L 131 503.10307209636903 L 132 503.8043907871299 L 133 504.5041315087158 L 134 505.2022834151379 L 135 505.89883568503404 L 136 506.59377752183633 L 137 507.2870981539387 L 138 507.9787868348637 L 139 508.66883284342913 L 140 509.3572254839144 L 141 510.043954086226 L 142 510.72900800606305 L 143 511.41237662508223 L 144 512.0940493510625 L 145 512.774015618069 L 146 513.4522648866173 L 147 514.1287866438362 L 148 514.8035704036309 L 149 515.476605706846 L 150 516.1478821214267 L 151 516.8173892425814 L 152 517.4851166929421 L 153 518.1510541227262 L 154 518.815191209896 L 155 519.4775176603198 L 156 520.1380232079299 L 157 520.7966976148832 L 158 521.4535306717191 L 159 522.1085121975183 L 160 522.7616320400597 L 161 523.4128800759785 L 162 524.0622462109231 L 163 524.7097203797115 L 164 525.3552925464866 L 165 525.9989527048729 L 166 526.6406908781308 L 167 527.2804971193118 L 168 527.918361511412 L 169 528.5542741675262 L 170 529.1882252310013 L 171 529.820204875589 L 172 530.4502033055976 L 173 531.0782107560449 L 174 531.7042174928081 L 175 532.3282138127763 L 176 532.9501900439994 L 177 533.5701365458392 L 178 534.1880437091179 L 179 534.8039019562679 L 180 535.4177017414794 L 181 536.0294335508491 L 182 536.6390879025273 L 183 537.2466553468648 L 184 537.8521264665594 L 185 538.4554918768024 L 186 539.056742225423 L 187 539.6558681930344 L 188 540.2528604931774 L 189 540.847709872465 L 190 541.440407110725 L 191 542.0309430211439 L 192 542.6193084504085 L 193 543.2054942788484 L 194 543.7894914205765 L 195 544.3712908236309 L 196 544.9508834701144 L 197 545.5282603763346 L 198 546.1034125929432 L 199 546.6763312050746 L 200 547.2470073324837 L 201 547.8154321296845 L 202 548.3815967860864 L 203 548.9454925261309 L 204 549.5071106094281 L 205 550.0664423308912 L 206 550.6234790208725 L 207 551.1782120452972 L 208 551.7306328057974 L 209 552.2807327398452 L 210 552.8285033208856 L 211 553.3739360584685 L 212 553.9170224983806 L 213 554.457754222776 L 214 554.9961228503071 L 215 555.5321200362542 L 216 556.0657374726552 L 217 556.5969668884338 L 218 557.1258000495283 L 219 557.6522287590188 L 220 558.1762448572547 L 221 558.6978402219806 L 222 559.2170067684626 L 223 559.7337364496136 L 224 560.2480212561179 L 225 560.7598532165553 L 226 561.2692243975248 L 227 561.7761269037675 L 228 562.2805528782889 L 229 562.782494502481 L 230 563.2819439962431 L 231 563.7788936181024 L 232 564.2733356653345 L 233 564.7652624740822 L 234 565.2546664194745 L 235 565.7415399157449 L 236 566.2258754163487 L 237 566.7076654140807 L 238 567.1869024411903 L 239 567.6635790694985 L 240 568.1376879105122 L 241 568.6092216155394 L 242 569.0781728758022 L 243 569.5445344225511 L 244 570.0082990271769 L 245 570.4694595013232 L 246 570.9280086969977 L 247 571.3839395066825 L 248 571.8372448634454 L 249 572.2879177410482 L 250 572.7359511540565 L 251 573.1813381579473 L 252 573.6240718492172 L 253 574.0641453654891 L 254 574.5015518856188 L 255 574.9362846298003 L 256 575.3683368596713 L 257 575.7977018784177 L 258 576.2243730308767 L 259 576.6483437036409 L 260 577.0696073251603 L 261 577.4881573658439 L 262 577.9039873381616 L 263 578.3170907967444 L 264 578.7274613384841 L 265 579.1350926026325 L 266 579.539978270901 L 267 579.942112067557 L 268 580.3414877595222 L 269 580.7380991564692 L 270 581.1319401109167 L 271 581.5230045183259 L 272 581.9112863171941 L 273 582.2967794891491 L 274 582.6794780590425 L 275 583.0593760950421 L 276 583.4364677087245 L 277 583.8107470551654 L 278 584.1822083330309 L 279 584.5508457846669 L 280 584.916653696189 L 281 585.2796263975706 L 282 585.6397582627307 L 283 585.9970437096215 L 284 586.3514772003148 L 285 586.7030532410873 L 286 587.0517663825068 L 287 587.3976112195156 L 288 587.740582391515 L 289 588.0806745824481 L 290 588.4178825208821 L 291 588.7522009800904 L 292 589.0836247781331 L 293 589.4121487779377 L 294 589.7377678873786 L 295 590.060477059356 L 296 590.3802712918742 L 297 590.6971456281193 L 298 591.0110951565352 L 299 591.3221150109013 L 300 591.6302003704059 L 301 591.9353464597228 L 302 592.2375485490843 L 303 592.5368019543546 L 304 592.8331020371027 L 305 593.126444204674 L 306 593.4168239102618 L 307 593.7042366529773 L 308 593.98867797792 L 309 594.2701434762462 L 310 594.5486287852374 L 311 594.8241295883686 L 312 595.096641615374 L 313 595.3661606423143 L 314 595.6326824916417 L 315 595.8962030322646 L 316 596.1567181796116 L 317 596.4142238956952 L 318 596.6687161891739 L 319 596.9201911154144 L 320 597.1686447765525 L 321 597.4140733215537 L 322 597.6564729462731 L 323 597.8958398935135 L 324 598.132170453085 L 325 598.365460961861 L 326 598.5957078038361 L 327 598.8229074101819 L 328 599.0470562593018 L 329 599.2681508768864 L 330 599.4861878359663 L 331 599.7011637569668 L 332 599.9130753077584 L 333 600.1219192037097 L 334 600.3276922077382 L 335 600.53039113036 L 336 600.7300128297397 L 337 600.9265542117386 L 338 601.1200122299631 L 339 601.3103838858118 L 340 601.4976662285221 L 341 601.6818563552156 L 342 601.8629514109432 L 343 602.0409485887295 L 344 602.2158451296166 L 345 602.3876383227058 L 346 602.556325505201 L 347 602.7219040624489 L 348 602.8843714279801 L 349 603.0437250835487 L 350 603.1999625591711 L 351 603.3530814331648 L 352 603.5030793321857 L 353 603.6499539312646 L 354 603.7937029538435 L 355 603.9343241718112 L 356 604.0718154055372 L 357 604.2061745239057 L 358 604.3373994443492 L 359 604.4654881328797 L 360 604.5904386041213 L 361 604.7122489213402 L 362 604.8309171964753 L 363 604.9464415901668 L 364 605.0588203117856 L 365 605.1680516194601 L 366 605.2741338201039 L 367 605.3770652694417 L 368 605.476844372035 L 369 605.5734695813064 L 370 605.6669393995642 L 371 605.7572523780253 L 372 605.8444071168375 L 373 605.9284022651012 L 374 606.0092365208909 L 375 606.0869086312748 L 376 606.161417392334 L 377 606.2327616491823 L 378 606.3009402959826 L 379 606.3659522759654 L 380 606.427796581444 L 381 606.4864722538312 L 382 606.5419783836533 L 383 606.5943141105649 L 384 606.6434786233614 L 385 606.6894711599924 L 386 606.7322910075733 L 387 606.7719375023955 L 388 606.8084100299384 L 389 606.8417080248772 L 390 606.8718309710925 L 391 606.8987784016786 L 392 606.9225498989498 L 393 606.9431450944477 L 394 606.9605636689464 L 395 606.9748053524581 L 396 606.9858699242363 L 397 606.9937572127801 L 398 606.9984670958365 L 399 606.9999995004022 L 400 606.9983544027248 L 401 606.9935318283035 L 402 606.9855318518883 L 403 606.9743545974787 L 404 606.9600002383226 L 405 606.9424689969123 L 406 606.9217611449825 L 407 606.8978770035051 L 408 606.8708169426845 L 409 606.8405813819521 L 410 606.8071707899592 L 411 606.7705856845705 L 412 606.7308266328555 L 413 606.6878942510798 L 414 606.641789204696 L 415 606.5925122083327 L 416 606.540064025784 L 417 606.4844454699971 L 418 606.4256574030604 L 419 606.3637007361895 L 420 606.2985764297135 L 421 606.2302854930598 L 422 606.1588289847386 L 423 606.0842080123268 L 424 606.00642373245 L 425 605.9254773507656 L 426 605.8413701219433 L 427 605.7541033496461 L 428 605.66367838651 L 429 605.5700966341228 L 430 605.4733595430027 L 431 605.3734686125758 L 432 605.2704253911525 L 433 605.1642314759039 L 434 605.0548885128369 L 435 604.9423981967684 L 436 604.8267622712999 L 437 604.7079825287892 L 438 604.5860608103239 L 439 604.4609990056917 L 440 604.3327990533521 L 441 604.2014629404057 L 442 604.0669927025638 L 443 603.9293904241164 L 444 603.7886582379003 L 445 603.6447983252663 L 446 603.4978129160443 L 447 603.3477042885097 L 448 603.1944747693481 L 449 603.0381267336186 L 450 602.8786626047174 L 451 602.7160848543405 L 452 602.5503960024446 L 453 602.3815986172087 L 454 602.2096953149944 L 455 602.0346887603044 L 456 601.8565816657426 L 457 601.6753767919706 L 458 601.491076947666 L 459 601.3036849894786 L 460 601.1132038219856 L 461 600.9196363976473 L 462 600.7229857167608 L 463 600.5232548274139 L 464 600.3204468254376 L 465 600.1145648543582 L 466 599.9056121053483 L 467 599.6935918171779 L 468 599.4785072761639 L 469 599.2603618161189 L 470 599.0391588183 L 471 598.8149017113562 L 472 598.5875939712749 L 473 598.3572391213288 L 474 598.1238407320204 L 475 597.8874024210274 L 476 597.6479278531461 L 477 597.4054207402352 L 478 597.1598848411573 L 479 596.9113239617218 L 480 596.6597419546248 L 481 596.4051427193904 L 482 596.1475302023093 L 483 595.8869083963787 L 484 595.6232813412391 L 485 595.3566531231129 L 486 595.0870278747404 L 487 594.8144097753159 L 488 594.538803050423 L 489 594.2602119719688 L 490 593.9786408581183 L 491 593.6940940732267 L 492 593.4065760277723 L 493 593.116091178288 L 494 592.8226440272921 L 495 592.5262391232188 L 496 592.2268810603472 L 497 591.9245744787306 L 498 591.6193240641244 L 499 591.3111345479134 L 500 591.0000107070384 L 501 590.6859573639224 L 502 590.3689793863956 L 503 590.0490816876202 L 504 589.726269226014 L 505 589.4005470051737 L 506 589.0719200737974 L 507 588.740393525606 L 508 588.4059724992647 L 509 588.0686621783032 L 510 587.728467791035 L 511 587.3853946104767 L 512 587.0394479542667 L 513 586.6906331845819 L 514 586.338955708055 L 515 585.9844209756907 L 516 585.6270344827813 L 517 585.2668017688212 L 518 584.9037284174217 L 519 584.5378200562236 L 520 584.1690823568105 L 521 583.7975210346208 L 522 583.4231418488591 L 523 583.0459506024068 L 524 582.6659531417325 L 525 582.283155356801 L 526 581.8975631809819 L 527 581.5091825909585 L 528 581.1180196066341 L 529 580.7240802910393 L 530 580.3273707502376 L 531 579.9278971332315 L 532 579.5256656318663 L 533 579.1206824807347 L 534 578.71295395708 L 535 578.3024863806988 L 536 577.8892861138431 L 537 577.4733595611216 L 538 577.0547131694002 L 539 576.6333534277028 L 540 576.2092868671098 L 541 575.7825200606578 L 542 575.353059623237 L 543 574.9209122114885 L 544 574.4860845237024 L 545 574.0485832997124 L 546 573.6084153207922 L 547 573.1655874095505 L 548 572.7201064298247 L 549 572.2719792865748 L 550 571.8212129257766 L 551 571.3678143343136 L 552 570.9117905398689 L 553 570.4531486108162 L 554 569.9918956561106 L 555 569.5280388251779 L 556 569.0615853078042 L 557 568.592542334024 L 558 568.1209171740085 L 559 567.6467171379529 L 560 567.1699495759631 L 561 566.6906218779415 L 562 566.2087414734725 L 563 565.7243158317078 L 564 565.2373524612502 L 565 564.7478589100372 L 566 564.2558427652243 L 567 563.7613116530672 L 568 563.2642732388033 L 569 562.7647352265337 L 570 562.262705359103 L 571 561.7581914179798 L 572 561.2512012231356 L 573 560.7417426329239 L 574 560.2298235439586 L 575 559.7154518909911 L 576 559.1986356467877 L 577 558.6793828220059 L 578 558.1577014650702 L 579 557.6335996620472 L 580 557.1070855365208 L 581 556.5781672494657 L 582 556.0468529991209 L 583 555.5131510208633 L 584 554.9770695870797 L 585 554.4386170070377 L 586 553.8978016267586 L 587 553.3546318288865 L 588 552.8091160325592 L 589 552.2612626932778 L 590 551.7110803027748 L 591 551.1585773888835 L 592 550.6037625154049 L 593 550.0466442819759 L 594 549.4872313239351 L 595 548.9255323121895 L 596 548.3615559530799 L 597 547.795310988246 L 598 547.2268061944912 L 599 546.656050383646 L 600 546.0830524024315 L 601 545.5078211323229 L 602 544.9303654894111 L 603 544.350694424265 L 604 543.7688169217924 L 605 543.1847420011011 L 606 542.5984787153586 L 607 542.0100361516525 L 608 541.4194234308486 L 609 540.826649707451 L 610 540.2317241694587 L 611 539.6346560382242 L 612 539.0354545683099 L 613 538.4341290473452 L 614 537.8306887958825 L 615 537.225143167252 L 616 536.6175015474178 L 617 536.0077733548317 L 618 535.3959680402871 L 619 534.7820950867736 L 620 534.1661640093282 L 621 533.5481843548896 L 622 532.9281657021493 L 623 532.306117661403 L 624 531.6820498744024 L 625 531.0559720142049 L 626 530.4278937850244 L 627 529.79782492208 L 628 529.1657751914463 L 629 528.5317543899009 L 630 527.8957723447734 L 631 527.2578389137922 L 632 526.6179639849325 L 633 525.976157476263 L 634 525.3324293357914 L 635 524.6867895413111 L 636 524.0392481002458 L 637 523.3898150494952 L 638 522.7385004552784 L 639 522.085314412979 L 640 521.4302670469878 L 641 520.7733685105461 L 642 520.1146289855884 L 643 519.4540586825847 L 644 518.7916678403818 L 645 518.1274667260452 L 646 517.4614656346994 L 647 516.7936748893684 L 648 516.1241048408165 L 649 515.4527658673865 L 650 514.7796683748398 L 651 514.1048227961952 L 652 513.4282395915664 L 653 512.7499292480005 L 654 512.0699022793154 L 655 511.3881692259365 L 656 510.70474065473354 L 657 510.019627158857 L 658 509.3328393575735 L 659 508.64438789610153 L 660 507.9542834454463 L 661 507.26253670223446 L 662 506.569158388548 L 663 505.87415925175833 L 664 505.17755006435993 L 665 504.47934162380267 L 666 503.77954475232514 L 667 503.0781702967864 L 668 502.3752291284984 L 669 501.67073214305685 L 670 500.9646902601728 L 671 500.25711442350314 L 672 499.54801560048116 L 673 498.83740478214634 L 674 498.12529298297426 L 675 497.4116912407055 L 676 496.69661061617506 L 677 495.9800621931403 L 678 495.2620570781098 L 679 494.5426064001706 L 680 493.82172131081614 L 681 493.0994129837733 L 682 492.37569261482895 L 683 491.6505714216569 L 684 490.92406064364343 L 685 490.19617154171374 L 686 489.4669153981568 L 687 488.7363035164509 L 688 488.0043472210882 L 689 487.2710578573993 L 690 486.5364467913774 L 691 485.80052540950214 L 692 485.0633051185629 L 693 484.3247973454824 L 694 483.58501353713916 L 695 482.84396516019046 L 696 482.10166370089405 L 697 481.3581206649309 L 698 480.61334757722614 L 699 479.86735598177086 L 700 479.12015744144287 L 701 478.37176353782786 L 702 477.6221858710395 L 703 476.8714360595399 L 704 476.1195257399594 L 705 475.3664665669161 L 706 474.6122702128355 L 707 473.85694836776935 L 708 473.10051273921465 L 709 472.34297505193183 L 710 471.5843470477634 L 711 470.8246404854517 L 712 470.0638671404569 L 713 469.30203880477416 L 714 468.53916728675097 L 715 467.77526441090436 L 716 467.0103420177372 L 717 466.24441196355497 L 718 465.4774861202819 L 719 464.70957637527715 L 720 463.94069463115005 L 721 463.1708528055761 L 722 462.40006283111205 L 723 461.628336655011 L 724 460.85568623903714 L 725 460.0821235592803 L 726 459.3076606059707 L 727 458.5323093832925 L 728 457.75608190919814 L 729 456.97899021522204 L 730 456.20104634629405 L 731 455.42226236055245 L 732 454.64265032915785 L 733 453.86222233610516 L 734 453.0809904780368 L 735 452.29896686405533 L 736 451.51616361553516 L 737 450.7325928659353 L 738 449.948266760611 L 739 449.1631974566254 L 740 448.3773971225615 L 741 447.590877938333 L 742 446.80365209499587 L 743 446.0157317945594 L 744 445.2271292497968 L 745 444.43785668405627 L 746 443.64792633107123 L 747 442.85735043477075 L 748 442.06614124909 L 749 441.27431103777997 L 750 440.4818720742177 L 751 439.6888366412157 L 752 438.895217030832 L 753 438.10102554417927 L 754 437.3062744912342 L 755 436.51097619064694 L 756 435.7151429695498 L 757 434.91878716336646 L 758 434.1219211156207 L 759 433.3245571777449 L 760 432.526707708889 L 761 431.7283850757284 L 762 430.92960165227277 L 763 430.1303698196739 L 764 429.330701966034 L 765 428.5306104862135 L 766 427.7301077816392 L 767 426.92920626011187 L 768 426.1279183356137 L 769 425.3262564281165 L 770 424.5242329633885 L 771 423.7218603728023 L 772 422.91915109314186 L 773 422.11611756640974 L 774 421.3127722396345 L 775 420.50912756467756 L 776 419.7051959980401 L 777 418.9009900006703 L 778 418.09652203776994 L 779 417.2918045786013 L 780 416.4868500962937 L 781 415.6816710676506 L 782 414.8762799729558 L 783 414.07068929577997 L 784 413.26491152278754 L 785 412.45895914354287 L 786 411.65284465031664 L 787 410.8465805378923 L 788 410.0401793033725 L 789 409.2336534459853 L 790 408.42701546689017 L 791 407.62027786898483 L 792 406.81345315671075 L 793 406.0065538358599 L 794 405.1995924133805 L 795 404.39258139718373 L 796 403.585533295949 L 797 402.77846061893075 L 798 401.97137587576435 L 799 401.1642915762722 L 800 400.35722023026983 L 801 399.5501743473719 L 802 398.7431664367985 L 803 397.93620900718105 L 804 397.12931456636863 L 805 396.32249562123394 L 806 395.5157646774794 L 807 394.7091342394436 L 808 393.9026168099071 L 809 393.09622488989896 L 810 392.28997097850277 L 811 391.48386757266303 L 812 390.67792716699137 L 813 389.8721622535729 L 814 389.0665853217727 L 815 388.261208858042 L 816 387.4560453457248 L 817 386.6511072648645 L 818 385.84640709201005 L 819 385.04195730002306 L 820 384.2377703578841 L 821 383.4338587304996 L 822 382.6302348785086 L 823 381.8269112580897 L 824 381.0239003207677 L 825 380.22121451322107 L 826 379.4188662770886 L 827 378.6168680487768 L 828 377.8152322592669 L 829 377.01397133392254 L 830 376.21309769229686 L 831 375.41262374794 L 832 374.612561908207 L 833 373.8129245740651 L 834 373.0137241399018 L 835 372.21497299333254 L 836 371.4166835150089 L 837 370.6188680784266 L 838 369.8215390497336 L 839 369.0247087875386 L 840 368.22838964271943 L 841 367.43259395823156 L 842 366.6373340689169 L 843 365.8426223013125 L 844 365.0484709734593 L 845 364.2548923947117 L 846 363.46189886554646 L 847 362.66950267737184 L 848 361.8777161123376 L 849 361.0865514431441 L 850 360.29602093285246 L 851 359.5061368346942 L 852 358.7169113918816 L 853 357.9283568374176 L 854 357.1404853939065 L 855 356.3533092733643 L 856 355.5668406770295 L 857 354.78109179517406 L 858 353.99607480691407 L 859 353.21180188002177 L 860 352.42828517073593 L 861 351.6455368235742 L 862 350.8635689711446 L 863 350.08239373395736 L 864 349.30202322023723 L 865 348.5224695257358 L 866 347.74374473354385 L 867 346.9658609139042 L 868 346.18883012402466 L 869 345.41266440789093 L 870 344.6373757960801 L 871 343.8629763055743 L 872 343.08947793957407 L 873 342.3168926873125 L 874 341.5452325238696 L 875 340.7745094099863 L 876 340.00473529187934 L 877 339.235922101056 L 878 338.46808175412923 L 879 337.7012261526328 L 880 336.9353671828369 L 881 336.1705167155641 L 882 335.4066866060049 L 883 334.64388869353445 L 884 333.88213480152876 L 885 333.1214367371815 L 886 332.3618062913211 L 887 331.60325523822775 L 888 330.8457953354511 L 889 330.0894383236279 L 890 329.33419592630025 L 891 328.5800798497336 L 892 327.8271017827353 L 893 327.07527339647373 L 894 326.32460634429714 L 895 325.5751122615531 L 896 324.82680276540805 L 897 324.07968945466746 L 898 323.33378390959575 L 899 322.5890976917372 L 900 321.84564234373624 L 901 321.10342938915903 L 902 320.36247033231444 L 903 319.622776658076 L 904 318.8843598317038 L 905 318.1472312986668 L 906 317.41140248446527 L 907 316.67688479445394 L 908 315.943689613665 L 909 315.21182830663196 L 910 314.48131221721303 L 911 313.7521526684156 L 912 313.02436096222067 L 913 312.2979483794077 L 914 311.57292617937975 L 915 310.8493055999888 L 916 310.12709785736183 L 917 309.4063141457267 L 918 308.686965637239 L 919 307.96906348180835 L 920 307.25261880692614 L 921 306.5376427174926 L 922 305.82414629564505 L 923 305.1121406005859 L 924 304.40163666841124 L 925 303.6926455119397 L 926 302.98517812054206 L 927 302.2792454599707 L 928 301.5748584721895 L 929 300.8720280752046 L 930 300.1707651628948 L 931 299.471080604843 L 932 298.77298524616754 L 933 298.076489907354 L 934 297.381605384088 L 935 296.68834244708717 L 936 295.9967118419346 L 937 295.3067242889123 L 938 294.6183904828349 L 939 293.93172109288406 L 940 293.24672676244273 L 941 292.5634181089306 L 942 291.88180572363933 L 943 291.2019001715683 L 944 290.5237119912611 L 945 289.84725169464195 L 946 289.1725297668529 L 947 288.49955666609117 L 948 287.8283428234473 L 949 287.15889864274317 L 950 286.4912345003709 L 951 285.8253607451321 L 952 285.1612876980772 L 953 284.49902565234584 L 954 283.8385848730069 L 955 283.17997559689974 L 956 282.5232080324754 L 957 281.86829235963825 L 958 281.2152387295885 L 959 280.5640572646646 L 960 279.9147580581863 L 961 279.2673511742985 L 962 278.621846647815 L 963 277.9782544840631 L 964 277.33658465872827 L 965 276.69684711770003 L 966 276.0590517769171 L 967 275.4232085222144 L 968 274.7893272091693 L 969 274.1574176629491 L 970 273.52748967815876 L 971 272.89955301868895 L 972 272.27361741756465 L 973 271.6496925767948 L 974 271.02778816722105 L 975 270.40791382836875 L 976 269.79007916829687 L 977 269.1742937634494 L 978 268.5605671585069 L 979 267.9489088662385 L 980 267.3393283673545 L 981 266.7318351103592 L 982 266.1264385114049 L 983 265.5231479541453 L 984 264.921972789591 L 985 264.3229223359633 L 986 263.726005878551 L 987 263.13123266956575 L 988 262.5386119279988 L 989 261.94815283947815 L 990 261.3598645561261 L 991 260.7737561964176 L 992 260.1898368450385 L 993 259.60811555274535 L 994 259.0286013362244 L 995 258.45130317795247 L 996 257.8762300260574 L 997 257.3033907941792 L 998 256.73279436133237 L 999 256.1644495717678 L 1000 255.5983652348361 L 1001 255.0345501248506 L 1002 254.4730129809517 L 1003 253.91376250697135 L 1004 253.35680737129798 L 1005 252.80215620674232 L 1006 252.24981761040354 L 1007 251.69980014353592 L 1008 251.15211233141625 L 1009 250.60676266321164 L 1010 250.0637595918479 L 1011 249.52311153387865 L 1012 248.98482686935466 L 1013 248.44891394169417 L 1014 247.91538105755345 L 1015 247.3842364866981 L 1016 246.85548846187473 L 1017 246.32914517868352 L 1018 245.8052147954512 L 1019 245.28370543310447 L 1020 244.7646251750441 L 1021 244.24798206701985 L 1022 243.73378411700554 L 1023 243.22203929507504 L 1024 242.71275553327874 L 1025 242.20594072552046 L 1026 241.7016027274354 L 1027 241.19974935626797 L 1028 240.700388390751 L 1029 240.20352757098485 L 1030 239.7091745983178 L 1031 239.21733713522627 L 1032 238.72802280519633 L 1033 238.24123919260555 L 1034 237.7569938426052 L 1035 237.2752942610035 L 1036 236.79614791414934 L 1037 236.3195622288163 L 1038 235.84554459208775 L 1039 235.37410235124224 L 1040 234.90524281363972 L 1041 234.43897324660813 L 1042 233.9753008773309 L 1043 233.51423289273484 L 1044 233.05577643937877 L 1045 232.59993862334278 L 1046 232.146726510118 L 1047 231.69614712449714 L 1048 231.24820745046566 L 1049 230.80291443109337 L 1050 230.36027496842703 L 1051 229.92029592338312 L 1052 229.4829841156417 L 1053 229.04834632354058 L 1054 228.61638928397034 L 1055 228.18711969226976 L 1056 227.76054420212228 L 1057 227.33666942545267 L 1058 226.91550193232462 L 1059 226.4970482508389 L 1060 226.08131486703218 L 1061 225.66830822477644 L 1062 225.2580347256792 L 1063 224.8505007289842 L 1064 224.44571255147284 L 1065 224.04367646736634 L 1066 223.6443987082284 L 1067 223.24788546286865 L 1068 222.85414287724683 L 1069 222.46317705437724 L 1070 222.07499405423448 L 1071 221.6895998936593 L 1072 221.30700054626544 L 1073 220.92720194234698 L 1074 220.55020996878642 L 1075 220.1760304689635 L 1076 219.8046692426646 L 1077 219.4361320459928 L 1078 219.07042459127868 L 1079 218.7075525469918 L 1080 218.34752153765274 L 1081 217.9903371437463 L 1082 217.6360049016344 L 1083 217.2845303034707 L 1084 216.93591879711528 L 1085 216.5901757860504 L 1086 216.24730662929645 L 1087 215.90731664132917 L 1088 215.57021109199707 L 1089 215.2359952064399 L 1090 214.90467416500752 L 1091 214.57625310317977 L 1092 214.25073711148664 L 1093 213.92813123542965 L 1094 213.60844047540334 L 1095 213.2916697866181 L 1096 212.97782407902295 L 1097 212.66690821722992 L 1098 212.35892702043824 L 1099 212.05388526235984 L 1100 211.7517876711453 L 1101 211.45263892931067 L 1102 211.15644367366465 L 1103 210.86320649523702 L 1104 210.5729319392072 L 1105 210.28562450483406 L 1106 210.00128864538593 L 1107 209.7199287680718 L 1108 209.44154923397284 L 1109 209.16615435797485 L 1110 208.89374840870153 L 1111 208.62433560844795 L 1112 208.35792013311558 L 1113 208.09450611214717 L 1114 207.83409762846296 L 1115 207.57669871839724 L 1116 207.322313371636 L 1117 207.07094553115493 L 1118 206.82259909315826 L 1119 206.57727790701853 L 1120 206.3349857752168 L 1121 206.09572645328385 L 1122 205.85950364974167 L 1123 205.6263210260464 L 1124 205.39618219653127 L 1125 205.16909072835062 L 1126 204.94505014142473 L 1127 204.72406390838515 L 1128 204.5061354545209 L 1129 204.2912681577254 L 1130 204.07946534844413 L 1131 203.87073030962299 L 1132 203.66506627665734 L 1133 203.46247643734193 L 1134 203.26296393182156 L 1135 203.06653185254217 L 1136 202.8731832442032 L 1137 202.6829211037102 L 1138 202.49574838012842 L 1139 202.31166797463715 L 1140 202.13068274048467 L 1141 201.9527954829441 L 1142 201.7780089592699 L 1143 201.60632587865513 L 1144 201.43774890218936 L 1145 201.2722806428176 L 1146 201.1099236652997 L 1147 200.95068048617063 L 1148 200.79455357370136 L 1149 200.64154534786076 L 1150 200.491658180278 L 1151 200.34489439420585 L 1152 200.2012562644846 L 1153 200.06074601750683 L 1154 199.9233658311829 L 1155 199.78911783490724 L 1156 199.65800410952522 L 1157 199.53002668730107 L 1158 199.4051875518862 L 1159 199.28348863828862 L 1160 199.16493183284277 L 1161 199.04951897318048 L 1162 198.93725184820232 L 1163 198.82813219805 L 1164 198.72216171407925 L 1165 198.61934203883376 L 1166 198.51967476601962 L 1167 198.4231614404806 L 1168 198.32980355817443 L 1169 198.2396025661492 L 1170 198.15255986252131 L 1171 198.06867679645362 L 1172 197.9879546681346 L 1173 197.9103947287581 L 1174 197.83599818050402 L 1175 197.76476617651971 L 1176 197.69669982090196 L 1177 197.63180016868012 L 1178 197.5700682257994 L 1179 197.51150494910567 L 1180 197.45611124633035 L 1181 197.40388797607642 L 1182 197.35483594780519 L 1183 197.30895592182355 L 1184 197.26624860927248 L 1185 197.22671467211578 L 1186 197.19035472312987 L 1187 197.15716932589442 L 1188 197.1271589947834 L 1189 197.1003241949573 L 1190 197.07666534235582 L 1191 197.0561828036914 L 1192 197.03887689644364 L 1193 197.02474788885428 L 1194 197.0137959999231 L 1195 197.00602139940452 L 1196 197.00142420780486 L 1197 197.00000449638074 L 1198 197.00176228713764 L 1199 197.0066975528298 L 1200 197.01481021696054 L 1201 197.02610015378346 L 1202 197.04056718830446 L 1203 197.05821109628434 L 1204 197.0790316042423 L 1205 197.10302838946023 L 1206 197.13020107998776 L 1207 197.16054925464783 L 1208 197.1940724430434 L 1209 197.23077012556473 L 1210 197.2706417333973 L 1211 197.31368664853076 L 1212 197.35990420376845 L 1213 197.40929368273774 L 1214 197.4618543199012 L 1215 197.51758530056836 L 1216 197.57648576090838 L 1217 197.63855478796353 L 1218 197.7037914196632 L 1219 197.77219464483883 L 1220 197.8437634032397 L 1221 197.91849658554932 L 1222 197.99639303340248 L 1223 198.07745153940346 L 1224 198.16167084714442 L 1225 198.24904965122528 L 1226 198.3395865972735 L 1227 198.43328028196552 L 1228 198.53012925304816 L 1229 198.6301320093613 L 1230 198.7332870008611 L 1231 198.8395926286441 L 1232 198.94904724497192 L 1233 199.06164915329674 L 1234 199.17739660828778 L 1235 199.29628781585822 L 1236 199.418320933193 L 1237 199.54349406877753 L 1238 199.6718052824268 L 1239 199.80325258531556 L 1240 199.9378339400092 L 1241 200.07554726049526 L 1242 200.2163904122157 L 1243 200.3603612121002 L 1244 200.50745742859976 L 1245 200.65767678172136 L 1246 200.81101694306346 L 1247 200.96747553585178 L 1248 201.12705013497649 L 1249 201.28973826702952 L 1250 201.455537410343 L 1251 201.62444499502848 L 1252 201.7964584030165 L 1253 201.97157496809731 L 1254 202.14979197596224 L 1255 202.33110666424577 L 1256 202.51551622256818 L 1257 202.70301779257935 L 1258 202.89360846800278 L 1259 203.087285294681 L 1260 203.28404527062108 L 1261 203.48388534604118 L 1262 203.68680242341796 L 1263 203.89279335753446 L 1264 204.101854955529 L 1265 204.31398397694448 L 1266 204.52917713377875 L 1267 204.74743109053549 L 1268 204.96874246427603 L 1269 205.19310782467156 L 1270 205.4205236940566 L 1271 205.6509865474827 L 1272 205.88449281277303 L 1273 206.1210388705779 L 1274 206.36062105443094 L 1275 206.60323565080554 L 1276 206.84887889917286 L 1277 207.09754699205985 L 1278 207.34923607510834 L 1279 207.60394224713474 L 1280 207.86166156019058 L 1281 208.12239001962377 L 1282 208.38612358414028 L 1283 208.6528581658669 L 1284 208.92258963041476 L 1285 209.1953137969432 L 1286 209.47102643822458 L 1287 209.74972328071 L 1288 210.0314000045953 L 1289 210.3160522438882 L 1290 210.60367558647584 L 1291 210.89426557419327 L 1292 211.18781770289246 L 1293 211.48432742251222 L 1294 211.78379013714863 L 1295 212.08620120512634 L 1296 212.39155593907046 L 1297 212.69984960597927 L 1298 213.01107742729755 L 1299 213.32523457899063 L 1300 213.64231619161922 L 1301 213.96231735041488 L 1302 214.28523309535606 L 1303 214.61105842124525 L 1304 214.93978827778625 L 1305 215.27141756966273 L 1306 215.605941156617 L 1307 215.9433538535298 L 1308 216.28365043050061 L 1309 216.62682561292874 L 1310 216.97287408159514 L 1311 217.32179047274468 L 1312 217.67356937816953 L 1313 218.02820534529278 L 1314 218.385692877253 L 1315 218.7460264329896 L 1316 219.10920042732843 L 1317 219.47520923106862 L 1318 219.84404717106972 L 1319 220.21570853033955 L 1320 220.59018754812303 L 1321 220.96747841999124 L 1322 221.3475752979315 L 1323 221.7304722904381 L 1324 222.11616346260334 L 1325 222.50464283620994 L 1326 222.89590438982327 L 1327 223.28994205888498 L 1328 223.68674973580684 L 1329 224.08632127006553 L 1330 224.4886504682979 L 1331 224.89373109439688 L 1332 225.30155686960845 L 1333 225.7121214726285 L 1334 226.12541853970131 L 1335 226.5414416647176 L 1336 226.9601843993145 L 1337 227.381640252975 L 1338 227.80580269312873 L 1339 228.23266514525324 L 1340 228.66222099297582 L 1341 229.0944635781761 L 1342 229.52938620108927 L 1343 229.9669821204099 L 1344 230.40724455339645 L 1345 230.85016667597637 L 1346 231.2957416228519 L 1347 231.74396248760647 L 1348 232.19482232281172 L 1349 232.6483141401353 L 1350 233.10443091044905 L 1351 233.563165563938 L 1352 234.02451099021005 L 1353 234.48846003840595 L 1354 234.95500551731038 L 1355 235.42414019546334 L 1356 235.8958568012721 L 1357 236.37014802312413 L 1358 236.8470065095003 L 1359 237.32642486908878 L 1360 237.80839567089978 L 1361 238.2929114443806 L 1362 238.77996467953136 L 1363 239.2695478270216 L 1364 239.76165329830718 L 1365 240.25627346574788 L 1366 240.75340066272568 L 1367 241.25302718376355 L 1368 241.75514528464493 L 1369 242.25974718253374 L 1370 242.76682505609506 L 1371 243.27637104561626 L 1372 243.78837725312889 L 1373 244.3028357425311 L 1374 244.81973853971073 L 1375 245.3390776326687 L 1376 245.86084497164333 L 1377 246.3850324692352 L 1378 246.91163200053234 L 1379 247.44063540323617 L 1380 247.9720344777882 L 1381 248.50582098749692 L 1382 249.0419866586656 L 1383 249.58052318072038 L 1384 250.1214222063393 L 1385 250.66467535158156 L 1386 251.21027419601737 L 1387 251.7582102828587 L 1388 252.30847511909016 L 1389 252.86106017560076 L 1390 253.41595688731607 L 1391 253.97315665333096 L 1392 254.53265083704292 L 1393 255.09443076628597 L 1394 255.65848773346505 L 1395 256.22481299569097 L 1396 256.79339777491595 L 1397 257.36423325806965 L 1398 257.93731059719585 L 1399 258.5126209095895 L 1400 259.09015527793434 L 1401 259.66990475044145 L 1402 260.2518603409876 L 1403 260.83601302925473 L 1404 261.4223537608698 L 1405 262.01087344754495 L 1406 262.6015629672187 L 1407 263.1944131641969 L 1408 263.789414849295 L 1409 264.3865587999803 L 1410 264.9858357605152 L 1411 265.5872364421001 L 1412 266.1907515230178 L 1413 266.796371648778 L 1414 267.40408743226203 L 1415 268.0138894538686 L 1416 268.62576826165974 L 1417 269.23971437150715 L 1418 269.8557182672394 L 1419 270.47377040078936 L 1420 271.09386119234205 L 1421 271.7159810304836 L 1422 272.34012027234957 L 1423 272.96626924377483 L 1424 273.5944182394436 L 1425 274.2245575230393 L 1426 274.85667732739637 L 1427 275.49076785465076 L 1428 276.1268192763924 L 1429 276.76482173381714 L 1430 277.40476533788006 L 1431 278.04664016944815 L 1432 278.69043627945456 L 1433 279.33614368905245 L 1434 279.9837523897699 L 1435 280.633252343665 L 1436 281.28463348348123 L 1437 281.9378857128038 L 1438 282.59299890621605 L 1439 283.2499629094562 L 1440 283.908767539575 L 1441 284.56940258509354 L 1442 285.2318578061613 L 1443 285.8961229347151 L 1444 286.5621876746381 L 1445 287.2300417019195 L 1446 287.8996746648147 L 1447 288.5710761840053 L 1448 289.24423585276037 L 1449 289.91914323709767 L 1450 290.59578787594535 L 1451 291.27415928130415 L 1452 291.9542469384097 L 1453 292.6360403058959 L 1454 293.3195288159581 L 1455 294.0047018745169 L 1456 294.69154886138233 L 1457 295.38005913041854 L 1458 296.07022200970886 L 1459 296.76202680172105 L 1460 297.4554627834732 L 1461 298.1505192067002 L 1462 298.8471852980195 L 1463 299.54545025909925 L 1464 300.24530326682486 L 1465 300.94673347346696 L 1466 301.6497300068497 L 1467 302.35428197051914 L 1468 303.06037844391204 L 1469 303.7680084825254 L 1470 304.47716111808563 L 1471 305.18782535871935 L 1472 305.89999018912295 L 1473 306.61364457073364 L 1474 307.3287774419008 L 1475 308.045377718057 L 1476 308.7634342918902 L 1477 309.4829360335154 L 1478 310.2038717906479 L 1479 310.9262303887755 L 1480 311.650000631332 L 1481 312.37517129987066 L 1482 313.1017311542381 L 1483 313.82966893274875 L 1484 314.558973352359 L 1485 315.2896331088423 L 1486 316.0216368769644 L 1487 316.7549733106589 L 1488 317.489631043203 L 1489 318.2255986873938 L 1490 318.9628648357247 L 1491 319.70141806056233 L 1492 320.44124691432353 L 1493 321.1823399296531 L 1494 321.924685619601 L 1495 322.668272477801 L 1496 323.41308897864855 L 1497 324.15912357747976 L 1498 324.90636471075015 L 1499 325.654800796214 L 1500 326.4044202331037 L 1501 327.1552114023097 L 1502 327.9071626665607 L 1503 328.6602623706039 L 1504 329.4144988413855 L 1505 330.16986038823205 L 1506 330.9263353030312 L 1507 331.68391186041345 L 1508 332.4425783179339 L 1509 333.2023229162541 L 1510 333.96313387932446 L 1511 334.72499941456664 L 1512 335.48790771305653 L 1513 336.25184694970716 L 1514 337.01680528345184 L 1515 337.78277085742815 L 1516 338.54973179916124 L 1517 339.317676220748 L 1518 340.0865922190416 L 1519 340.85646787583556 L 1520 341.62729125804873 L 1521 342.39905041791025 L 1522 343.1717333931446 L 1523 343.94532820715733 L 1524 344.7198228692202 L 1525 345.4952053746575 L 1526 346.27146370503186 L 1527 347.0485858283306 L 1528 347.82655969915237 L 1529 348.60537325889356 L 1530 349.38501443593555 L 1531 350.16547114583136 L 1532 350.9467312914935 L 1533 351.7287827633812 L 1534 352.51161343968795 L 1535 353.29521118652974 L 1536 354.07956385813293 L 1537 354.8646592970224 L 1538 355.65048533421026 L 1539 356.4370297893844" stroke-linecap="round" stroke-linejoin="round" stroke-miterlimit="10" stroke-width="75"/></g></svg>